#!OML:ASF H:\BreakDance\Project 1\Capture day 1\Session 1\Male.ASF
:FULLY-SPECIFIED
:DEGREES
2637
root -15.9585 16.1876 -0.8108 711.612 -71.6371 8.94494
lowerback 3.86655 -0.586315 0.52606
upperback 5.66554 -0.831721 -3.29205
thorax 3.62381 -0.3822 -3.69905
lowerneck -5.69037 -3.01753 -5.75093
upperneck 8.03825 -4.3207 8.30503
head 3.62678 -1.96409 3.25476
rclavicle 3.89618e-014 -2.38542e-015
rhumerus 57.8575 43.7093 -42.5103
rradius 41.6966
rwrist 15.3163
rhand -38.9812 -6.60367
rfingers 7.12502
rthumb -11.9855 -36.2405
lclavicle 3.89618e-014 -2.38542e-015
lhumerus 95.4114 -42.2409 19.2669
lradius 44.8215
lwrist -4.74588
lhand -21.5926 -35.1977
lfingers 7.12502
lthumb 4.80212 -5.27213
rfemur -45.58 3.03004 16.4152
rtibia 74.8125
rfoot -13.8189 6.12747
rtoes -19.8874
lfemur -20.9359 9.2572 -28.4597
ltibia 47.1178
lfoot -24.6873 -4.60097
ltoes -21.3886
2638
root -15.8999 16.2091 -0.879895 712.972 -71.2588 7.88181
lowerback 4.25166 -0.651996 0.698435
upperback 5.90921 -0.92614 -3.2357
thorax 3.65494 -0.425 -3.73526
lowerneck -6.02153 -3.12017 -5.71167
upperneck 8.87042 -4.49507 8.20326
head 3.94227 -2.03813 3.20216
rclavicle 3.45885e-014 0
rhumerus 56.7679 41.3629 -44.1023
rradius 38.811
rwrist 14.4759
rhand -37.3887 -8.09689
rfingers 7.12502
rthumb -10.4497 -37.8172
lclavicle 3.45885e-014 0
lhumerus 93.5782 -41.6065 22.022
lradius 41.433
lwrist -4.88169
lhand -20.2193 -32.4029
lfingers 7.12502
lthumb 6.12811 -2.51149
rfemur -45.7316 2.54785 16.4176
rtibia 76.8097
rfoot -13.4152 7.14423
rtoes -14.4718
lfemur -22.5539 9.45013 -28.1669
ltibia 48.4808
lfoot -23.6487 -4.30005
ltoes -24.5983
2639
root -15.8327 16.2354 -0.948923 714.793 -70.913 6.4544
lowerback 4.71081 -0.724086 0.992451
upperback 6.20408 -1.02917 -3.0478
thorax 3.69805 -0.46955 -3.70184
lowerneck -6.47976 -3.23877 -5.74555
upperneck 9.52754 -4.65515 8.02947
head 4.22634 -2.10906 3.13787
rclavicle 3.89618e-014 -1.43125e-014
rhumerus 55.9316 38.468 -45.628
rradius 35.7327
rwrist 13.68
rhand -35.162 -10.3687
rfingers 7.12502
rthumb -8.30111 -40.1856
lclavicle 3.89618e-014 -1.43125e-014
lhumerus 91.5944 -40.4503 25.0028
lradius 38.0455
lwrist -5.04153
lhand -19.0579 -29.4645
lfingers 7.12502
lthumb 7.24925 0.391297
rfemur -45.9311 2.09734 16.4962
rtibia 78.1901
rfoot -13.0463 8.28561
rtoes -8.59778
lfemur -24.4839 9.65008 -27.8193
ltibia 49.9799
lfoot -22.4519 -3.66845
ltoes -28.5662
2640
root -15.7598 16.2659 -1.0175 716.939 -70.6119 4.82844
lowerback 5.20899 -0.784565 1.34779
upperback 6.54151 -1.11692 -2.74278
thorax 3.76684 -0.506073 -3.58049
lowerneck -6.98453 -3.37782 -5.84615
upperneck 9.88898 -4.80605 7.83242
head 4.42972 -2.18045 3.07643
rclavicle -1.98785e-014 1.55052e-014
rhumerus 55.291 34.9673 -47.2953
rradius 32.4674
rwrist 13.2213
rhand -32.6473 -12.9228
rfingers 7.12502
rthumb -5.8737 -42.8214
lclavicle -1.98785e-014 1.55052e-014
lhumerus 89.6798 -38.7562 27.9535
lradius 34.787
lwrist -5.2498
lhand -18.1812 -26.4735
lfingers 7.12502
lthumb 8.09544 3.35145
rfemur -46.2051 1.69122 16.6146
rtibia 78.8695
rfoot -12.815 9.44151
rtoes -3.25868
lfemur -26.6875 9.85801 -27.4886
ltibia 51.4739
lfoot -21.0327 -2.84606
ltoes -31.4873
2641
root -15.6846 16.3001 -1.08462 719.296 -70.3741 3.14734
lowerback 5.72277 -0.818493 1.69658
upperback 6.8916 -1.17076 -2.33015
thorax 3.84595 -0.528514 -3.34335
lowerneck -7.51662 -3.52914 -6.04316
upperneck 9.94267 -4.93918 7.66291
head 4.54606 -2.24702 3.03941
rclavicle 2.52457e-014 7.55382e-015
rhumerus 54.8658 30.8893 -49.1669
rradius 29.1007
rwrist 13.1245
rhand -30.1737 -15.5553
rfingers 7.12502
rthumb -3.48522 -45.5065
lclavicle 2.52457e-014 7.55382e-015
lhumerus 87.9367 -36.5972 30.781
lradius 31.7003
lwrist -5.63584
lhand -17.6013 -23.7927
lfingers 7.12502
lthumb 8.65513 6.00986
rfemur -46.5729 1.3342 16.7438
rtibia 78.7961
rfoot -12.9448 10.3881
rtoes 0.284862
lfemur -29.0934 10.0882 -27.2356
ltibia 52.7795
lfoot -19.5494 -1.7722
ltoes -33.161
2642
root -15.6106 16.3384 -1.1483 721.677 -70.2167 1.6172
lowerback 6.27761 -0.804642 2.04769
upperback 7.20298 -1.15934 -1.89513
thorax 3.86821 -0.520283 -3.08428
lowerneck -8.02627 -3.70725 -6.26217
upperneck 9.70549 -5.09187 7.54876
head 4.57322 -2.32363 3.02164
rclavicle -3.16068e-014 1.94809e-014
rhumerus 54.6288 26.2427 -51.3822
rradius 25.7228
rwrist 13.4378
rhand -28.0517 -18.3008
rfingers 7.12502
rthumb -1.43584 -48.2758
lclavicle -3.16068e-014 1.94809e-014
lhumerus 86.4744 -34.1365 33.3261
lradius 28.8458
lwrist -6.31445
lhand -17.2336 -21.5593
lfingers 7.12502
lthumb 9.00991 8.22833
rfemur -47.0113 1.02358 16.8172
rtibia 77.8952
rfoot -13.4704 11.071
rtoes 2.0773
lfemur -31.6289 10.3552 -27.1471
ltibia 53.7104
lfoot -18.1585 -0.420099
ltoes -33.1367
2643
root -15.5408 16.3792 -1.20667 723.957 -70.1652 0.34415
lowerback 6.91849 -0.72994 2.41666
upperback 7.44001 -1.0599 -1.50053
thorax 3.77116 -0.468793 -2.87798
lowerneck -8.52627 -3.91175 -6.46384
upperneck 9.26875 -5.28064 7.52749
head 4.54232 -2.41395 3.02716
rclavicle 2.18663e-015 6.36111e-015
rhumerus 54.6001 21.0071 -54.162
rradius 22.3586
rwrist 14.4033
rhand -26.4731 -20.9689
rfingers 7.12502
rthumb 0.0888253 -50.9486
lclavicle 2.18663e-015 6.36111e-015
lhumerus 85.2751 -31.5278 35.575
lradius 26.2634
lwrist -7.37171
lhand -17.0118 -19.7958
lfingers 7.12502
lthumb 9.224 9.98246
rfemur -47.4604 0.762362 16.8005
rtibia 76.1393
rfoot -14.346 11.3352
rtoes 2.46815
lfemur -34.1795 10.6661 -27.2633
ltibia 54.1011
lfoot -17.0724 1.36509
ltoes -31.6426
2644
root -15.4772 16.4176 -1.25851 726.097 -70.2399 -0.666466
lowerback 7.70069 -0.604632 2.85029
upperback 7.57263 -0.87687 -1.21071
thorax 3.49155 -0.373583 -2.81899
lowerneck -8.99868 -4.14235 -6.59119
upperneck 8.68205 -5.51956 7.61161
head 4.46566 -2.52283 3.04992
rclavicle 5.83433e-014 -1.37161e-014
rhumerus 54.905 15.1864 -57.7318
rradius 19.0387
rwrist 16.4465
rhand -25.5036 -23.3466
rfingers 7.12502
rthumb 1.02515 -53.3238
lclavicle 5.83433e-014 -1.37161e-014
lhumerus 84.2762 -28.9004 37.4744
lradius 24.0384
lwrist -8.78823
lhand -16.8462 -18.4851
lfingers 7.12502
lthumb 9.38377 11.2861
rfemur -47.8574 0.556218 16.689
rtibia 73.5437
rfoot -15.3982 11.1084
rtoes 2.30447
lfemur -36.6583 11.0174 -27.5776
ltibia 53.8539
lfoot -16.5992 3.68468
ltoes -29.758
2645
root -15.4218 16.4479 -1.3033 728.021 -70.4419 -1.36002
lowerback 8.62603 -0.449841 3.33946
upperback 7.60014 -0.632841 -1.065
thorax 3.02911 -0.246192 -2.94633
lowerneck -9.45846 -4.38643 -6.6419
upperneck 7.98919 -5.79946 7.84803
head 4.36033 -2.64376 3.10465
rclavicle 2.08724e-015 -4.17448e-015
rhumerus 55.7155 8.70666 -62.5246
rradius 15.863
rwrist 20.3609
rhand -25.0545 -25.2153
rfingers 7.12502
rthumb 1.4589 -55.19
lclavicle 2.08724e-015 -4.17448e-015
lhumerus 83.3727 -26.3305 39.1112
lradius 22.2073
lwrist -10.5516
lhand -16.6918 -17.64
lfingers 7.12502
lthumb 9.53275 12.1244
rfemur -48.1673 0.387602 16.4553
rtibia 70.2049
rfoot -16.5361 10.3013
rtoes 1.89496
lfemur -39.0195 11.3888 -28.0886
ltibia 52.9516
lfoot -16.7636 6.38902
ltoes -27.381
2646
root -15.3782 16.4635 -1.3412 729.66 -70.7494 -1.67968
lowerback 9.6173 -0.286867 3.82249
upperback 7.55428 -0.3606 -1.05512
thorax 2.46166 -0.105787 -3.22008
lowerneck -9.93059 -4.63181 -6.62276
upperneck 7.21611 -6.09886 8.20668
head 4.23687 -2.76868 3.18427
rclavicle 7.72278e-014 -2.0276e-014
rhumerus 56.1878 3.92521 -64.1288
rradius 15.6487
rwrist 21.6813
rhand -24.4546 -27.5203
rfingers 7.12502
rthumb 2.03827 -57.4903
lclavicle 7.72278e-014 -2.0276e-014
lhumerus 82.5023 -23.8546 40.6048
lradius 20.7819
lwrist -12.6831
lhand -16.6429 -17.227
lfingers 7.12502
lthumb 9.57992 12.5352
rfemur -48.3972 0.224486 16.0815
rtibia 66.2695
rfoot -17.6639 8.84353
rtoes 0.934462
lfemur -41.2706 11.7543 -28.7882
ltibia 51.4747
lfoot -17.7207 9.22757
ltoes -25.6077
2647
root -15.3486 16.4624 -1.3731 731.02 -71.1254 -1.62929
lowerback 10.5657 -0.140468 4.22248
upperback 7.46437 -0.105112 -1.13542
thorax 1.87716 0.0222263 -3.54858
lowerneck -10.4024 -4.85108 -6.57834
upperneck 6.37602 -6.3726 8.66657
head 4.09511 -2.87926 3.29324
rclavicle -5.46658e-014 9.44227e-015
rhumerus 56.9307 0.254332 -64.1902
rradius 15.7147
rwrist 22.5544
rhand -24.0739 -29.169
rfingers 7.12502
rthumb 2.40594 -59.1351
lclavicle -5.46658e-014 9.44227e-015
lhumerus 81.6151 -21.4804 42.0429
lradius 19.7413
lwrist -15.1254
lhand -16.8425 -17.3026
lfingers 7.12502
lthumb 9.38736 12.4684
rfemur -48.6044 0.0482112 15.5669
rtibia 61.9648
rfoot -18.8073 6.71838
rtoes -0.820017
lfemur -43.4636 12.1027 -29.6437
ltibia 49.5783
lfoot -19.3669 11.6012
ltoes -25.1348
2648
root -15.3356 16.4449 -1.40129 732.153 -71.5337 -1.27509
lowerback 11.3543 -0.0165079 4.48107
upperback 7.37437 0.109629 -1.25539
thorax 1.38032 0.125894 -3.84247
lowerneck -10.849 -5.02835 -6.50851
upperneck 5.46949 -6.59267 9.16266
head 3.92699 -2.96655 3.41429
rclavicle -2.76808e-014 -2.98177e-016
rhumerus 57.6895 -2.18345 -62.4601
rradius 15.9408
rwrist 23.0269
rhand -23.8893 -29.954
rfingers 7.12502
rthumb 2.58429 -59.9181
lclavicle -2.76808e-014 -2.98177e-016
lhumerus 80.7648 -19.2206 43.1986
lradius 19.1079
lwrist -17.6175
lhand -17.5064 -17.7906
lfingers 7.12502
lthumb 8.7467 12.0081
rfemur -48.8471 -0.117191 14.9314
rtibia 57.5219
rfoot -19.9275 3.91072
rtoes -4.28261
lfemur -45.6723 12.519 -30.631
ltibia 47.4634
lfoot -21.3161 12.864
ltoes -25.2732
2649
root -15.3383 16.4151 -1.42726 733.224 -71.9524 -0.798946
lowerback 11.887 0.100943 4.58636
upperback 7.31771 0.293208 -1.33914
thorax 1.05471 0.212001 -4.01222
lowerneck -11.2268 -5.15876 -6.43314
upperneck 4.48785 -6.73914 9.57909
head 3.71718 -3.02826 3.51772
rclavicle -9.81499e-016 1.37658e-014
rhumerus 58.3066 -3.53677 -59.0473
rradius 16.2086
rwrist 23.3049
rhand -23.8312 -29.8705
rfingers 7.12502
rthumb 2.64036 -59.8339
lclavicle -9.81499e-016 1.37658e-014
lhumerus 79.9767 -17.1163 43.914
lradius 18.8821
lwrist -19.7778
lhand -18.6793 -18.7571
lfingers 7.12502
lthumb 7.61472 11.0859
rfemur -49.2117 -0.20863 14.2072
rtibia 53.1818
rfoot -20.8474 0.554333
rtoes -9.2073
lfemur -47.9848 13.154 -31.7465
ltibia 45.3361
lfoot -23.179 12.5931
ltoes -26.7546
